<svg xmlns="http://www.w3.org/2000/svg" version="1.1" width="1500" height="1500" viewBox="0 0 551 253">
  <rect width="100%" height="100%" fill="#e7644d"></rect>
  <path fill="none" stroke="#e64a2e" d="M136.91 181.765h-7.85v67.83H6.25V2.905h122.81v111.39h7.85l15.35-111.39h124.95l-43.55 123.17 43.55 123.52H151.55zm155.65 67.83V2.905h128.88q59.62 0 91.21 28.56 31.6 28.56 31.6 93.18 0 124.95-127.81 124.95zm129.95-142.8h-9.99v61.76h9.99q4.29 0 7.32-2.85 3.04-2.86 3.04-7.5v-41.41q0-4.29-3.04-7.14-3.03-2.86-7.32-2.86z"></path>
  <path fill="#f1e3d9" d="M136.91 181.765h-7.85v67.83H6.25V2.905h122.81v111.39h7.85l15.35-111.39h124.95l-43.55 123.17 43.55 123.52H151.55z"></path>
  <path fill="#f1e3d9" d="M292.56 249.595V2.905h128.88q59.62 0 91.21 28.56 31.6 28.56 31.6 93.18 0 124.95-127.81 124.95zm129.95-142.8h-9.99v61.76h9.99q4.29 0 7.32-2.85 3.04-2.86 3.04-7.5v-41.41q0-4.29-3.04-7.14-3.03-2.86-7.32-2.86"></path>
</svg>
